HIERARCHY
ROOT hip
{
  OFFSET 0 90.174 2.4664
  CHANNELS 6 Xposition Yposition Zposition Zrotation Xrotation Yrotation
  JOINT abdomen
  {
    OFFSET 0 -1.186 -1.5018
    CHANNELS 6 Xposition Yposition Zposition Zrotation Xrotation Yrotation
    JOINT abdomen2
    {
      OFFSET 0 9.964 0.2134
      CHANNELS 6 Xposition Yposition Zposition Zrotation Xrotation Yrotation
      JOINT chest
      {
        OFFSET 0 13.134 -3.2573
        CHANNELS 6 Xposition Yposition Zposition Zrotation Xrotation Yrotation
        JOINT neck
        {
          OFFSET 0 20.686 -1.6905
          CHANNELS 6 Xposition Yposition Zposition Zrotation Xrotation Yrotation
          JOINT head
          {
            OFFSET 0 7.238 -0.1237
            CHANNELS 6 Xposition Yposition Zposition Zrotation Xrotation Yrotation
            End Site
            {
              OFFSET 0 0 0
            }
          }
        }
        JOINT lCollar
        {
          OFFSET 1.7069 20.075 5.0056
          CHANNELS 6 Xposition Yposition Zposition Zrotation Xrotation Yrotation
          JOINT lShldr
          {
            OFFSET 13.6458 -0.047 -4.849
            CHANNELS 6 Xposition Yposition Zposition Zrotation Xrotation Yrotation
            JOINT lForeArm
            {
              OFFSET 28.3255 -0.9759 2.2888
              CHANNELS 6 Xposition Yposition Zposition Zrotation Xrotation Yrotation
              JOINT lHand
              {
                OFFSET 22.1583 -0.53 10.8316
                CHANNELS 6 Xposition Yposition Zposition Zrotation Xrotation Yrotation
                JOINT lThumb1
                {
                  OFFSET 0.786 0.112 2.5817
                  CHANNELS 6 Xposition Yposition Zposition Zrotation Xrotation Yrotation
                  JOINT lThumb2
                  {
                    OFFSET 0.3601 -0.878 4.2331
                    CHANNELS 6 Xposition Yposition Zposition Zrotation Xrotation Yrotation
                    JOINT lThumb2_End
                    {
                      OFFSET 1.8127 -1.216 2.2227
                      CHANNELS 6 Xposition Yposition Zposition Zrotation Xrotation Yrotation
                      End Site
                      {
                        OFFSET 0.0181 -0.0122 0.0222
                      }
                    }
                  }
                }
                JOINT lCarpal1
                {
                  OFFSET 0.9571 1.114 1.7695
                  CHANNELS 6 Xposition Yposition Zposition Zrotation Xrotation Yrotation
                  JOINT lIndex1
                  {
                    OFFSET 4.1246 0.487 4.1451
                    CHANNELS 6 Xposition Yposition Zposition Zrotation Xrotation Yrotation
                    JOINT lIndex2
                    {
                      OFFSET 3.4052 -1.454 2.7682
                      CHANNELS 6 Xposition Yposition Zposition Zrotation Xrotation Yrotation
                      JOINT lIndex2_End
                      {
                        OFFSET 1.4531 -1.795 1.2713
                        CHANNELS 6 Xposition Yposition Zposition Zrotation Xrotation Yrotation
                        End Site
                        {
                          OFFSET 0.0145 -0.0179 0.0127
                        }
                      }
                    }
                  }
                  JOINT lMid1
                  {
                    OFFSET 5.6954 0.21 2.1184
                    CHANNELS 6 Xposition Yposition Zposition Zrotation Xrotation Yrotation
                    JOINT lMid2
                    {
                      OFFSET 3.9766 -1.54 2.3863
                      CHANNELS 6 Xposition Yposition Zposition Zrotation Xrotation Yrotation
                      JOINT lMid2_End
                      {
                        OFFSET 1.4042 -1.926 1.125
                        CHANNELS 6 Xposition Yposition Zposition Zrotation Xrotation Yrotation
                        End Site
                        {
                          OFFSET 0.014 -0.0193 0.0113
                        }
                      }
                    }
                  }
                }
                JOINT lCarpal2
                {
                  OFFSET 2.0956 0.66 -0.3894
                  CHANNELS 6 Xposition Yposition Zposition Zrotation Xrotation Yrotation
                  JOINT lRing1
                  {
                    OFFSET 5.0395 -0.09 2.4971
                    CHANNELS 6 Xposition Yposition Zposition Zrotation Xrotation Yrotation
                    JOINT lRing2
                    {
                      OFFSET 3.7921 -1.552 1.4806
                      CHANNELS 6 Xposition Yposition Zposition Zrotation Xrotation Yrotation
                      JOINT lRing2_End
                      {
                        OFFSET 1.4655 -1.808 0.9609
                        CHANNELS 6 Xposition Yposition Zposition Zrotation Xrotation Yrotation
                        End Site
                        {
                          OFFSET 0.0147 -0.0181 0.0096
                        }
                      }
                    }
                  }
                  JOINT lPinky1
                  {
                    OFFSET 4.9141 -1.269 0.3591
                    CHANNELS 6 Xposition Yposition Zposition Zrotation Xrotation Yrotation
                    JOINT lPinky2
                    {
                      OFFSET 3.1477 -1.685 0.8462
                      CHANNELS 6 Xposition Yposition Zposition Zrotation Xrotation Yrotation
                      JOINT lPinky2_End
                      {
                        OFFSET 0.8055 -1.585 0.7955
                        CHANNELS 6 Xposition Yposition Zposition Zrotation Xrotation Yrotation
                        End Site
                        {
                          OFFSET 0.0081 -0.0158 0.008
                        }
                      }
                    }
                  }
                }
              }
            }
          }
        }
        JOINT rCollar
        {
          OFFSET -1.7069 20.075 5.0056
          CHANNELS 6 Xposition Yposition Zposition Zrotation Xrotation Yrotation
          JOINT rShldr
          {
            OFFSET -13.6458 -0.047 -4.849
            CHANNELS 6 Xposition Yposition Zposition Zrotation Xrotation Yrotation
            JOINT rForeArm
            {
              OFFSET -28.3255 -0.9759 2.2888
              CHANNELS 6 Xposition Yposition Zposition Zrotation Xrotation Yrotation
              JOINT rHand
              {
                OFFSET -22.1583 -0.53 10.8316
                CHANNELS 6 Xposition Yposition Zposition Zrotation Xrotation Yrotation
                JOINT rThumb1
                {
                  OFFSET -0.786 0.112 2.5817
                  CHANNELS 6 Xposition Yposition Zposition Zrotation Xrotation Yrotation
                  JOINT rThumb2
                  {
                    OFFSET -0.3601 -0.878 4.2331
                    CHANNELS 6 Xposition Yposition Zposition Zrotation Xrotation Yrotation
                    JOINT rThumb2_End
                    {
                      OFFSET -1.8127 -1.216 2.2227
                      CHANNELS 6 Xposition Yposition Zposition Zrotation Xrotation Yrotation
                      End Site
                      {
                        OFFSET -0.0181 -0.0122 0.0222
                      }
                    }
                  }
                }
                JOINT rCarpal1
                {
                  OFFSET -0.9571 1.114 1.7695
                  CHANNELS 6 Xposition Yposition Zposition Zrotation Xrotation Yrotation
                  JOINT rIndex1
                  {
                    OFFSET -4.1246 0.487 4.1451
                    CHANNELS 6 Xposition Yposition Zposition Zrotation Xrotation Yrotation
                    JOINT rIndex2
                    {
                      OFFSET -3.4052 -1.454 2.7682
                      CHANNELS 6 Xposition Yposition Zposition Zrotation Xrotation Yrotation
                      JOINT rIndex2_End
                      {
                        OFFSET -1.4531 -1.795 1.2713
                        CHANNELS 6 Xposition Yposition Zposition Zrotation Xrotation Yrotation
                        End Site
                        {
                          OFFSET -0.0145 -0.018 0.0127
                        }
                      }
                    }
                  }
                  JOINT rMid1
                  {
                    OFFSET -5.6954 0.21 2.1184
                    CHANNELS 6 Xposition Yposition Zposition Zrotation Xrotation Yrotation
                    JOINT rMid2
                    {
                      OFFSET -3.9766 -1.54 2.3863
                      CHANNELS 6 Xposition Yposition Zposition Zrotation Xrotation Yrotation
                      JOINT rMid2_End
                      {
                        OFFSET -1.4042 -1.926 1.125
                        CHANNELS 6 Xposition Yposition Zposition Zrotation Xrotation Yrotation
                        End Site
                        {
                          OFFSET -0.014 -0.0193 0.0113
                        }
                      }
                    }
                  }
                }
                JOINT rCarpal2
                {
                  OFFSET -2.0956 0.66 -0.3894
                  CHANNELS 6 Xposition Yposition Zposition Zrotation Xrotation Yrotation
                  JOINT rRing1
                  {
                    OFFSET -5.0395 -0.09 2.4971
                    CHANNELS 6 Xposition Yposition Zposition Zrotation Xrotation Yrotation
                    JOINT rRing2
                    {
                      OFFSET -3.7921 -1.552 1.4806
                      CHANNELS 6 Xposition Yposition Zposition Zrotation Xrotation Yrotation
                      JOINT rRing2_End
                      {
                        OFFSET -1.4655 -1.808 0.9609
                        CHANNELS 6 Xposition Yposition Zposition Zrotation Xrotation Yrotation
                        End Site
                        {
                          OFFSET -0.0147 -0.0181 0.0096
                        }
                      }
                    }
                  }
                  JOINT rPinky1
                  {
                    OFFSET -4.9141 -1.269 0.3592
                    CHANNELS 6 Xposition Yposition Zposition Zrotation Xrotation Yrotation
                    JOINT rPinky2
                    {
                      OFFSET -3.1477 -1.685 0.8462
                      CHANNELS 6 Xposition Yposition Zposition Zrotation Xrotation Yrotation
                      JOINT rPinky2_End
                      {
                        OFFSET -0.8055 -1.585 0.7955
                        CHANNELS 6 Xposition Yposition Zposition Zrotation Xrotation Yrotation
                        End Site
                        {
                          OFFSET -0.0081 -0.0158 0.008
                        }
                      }
                    }
                  }
                }
              }
            }
          }
        }
      }
    }
  }
  JOINT lThigh
  {
    OFFSET 8.367 -8.2066 0.5982
    CHANNELS 6 Xposition Yposition Zposition Zrotation Xrotation Yrotation
    JOINT lShin
    {
      OFFSET 2.1923 -43.463 -0.4932
      CHANNELS 6 Xposition Yposition Zposition Zrotation Xrotation Yrotation
      JOINT lFoot
      {
        OFFSET 0.7333 -45.8593 -2.6451
        CHANNELS 6 Xposition Yposition Zposition Zrotation Xrotation Yrotation
        End Site
        {
          OFFSET 2.6618 -4.2699 12.3931
        }
      }
    }
  }
  JOINT rThigh
  {
    OFFSET -8.367 -8.2066 0.5982
    CHANNELS 6 Xposition Yposition Zposition Zrotation Xrotation Yrotation
    JOINT rShin
    {
      OFFSET -2.1923 -43.463 -0.4931
      CHANNELS 6 Xposition Yposition Zposition Zrotation Xrotation Yrotation
      JOINT rFoot
      {
        OFFSET -0.7333 -45.8593 -2.6451
        CHANNELS 6 Xposition Yposition Zposition Zrotation Xrotation Yrotation
        End Site
        {
          OFFSET -2.6618 -4.2699 12.3931
        }
      }
    }
  }
}
MOTION
Frames:	4
Frame Time:	0.0333333
0 90.174 2.4664 0 0 -0 0 -1.186 -1.5018 0 0 -0 0 9.964 0.2134 0 0 -0 0 13.134 -3.2573 0 0 -0 0 20.686 -1.6905 0 0 -0 0 7.238 -0.1237 0 0 -0 1.7069 20.075 5.0056 0 0 -0 13.6458 -0.047 -4.849 1.66051 0.0835086 5.75766 28.3255 -0.9759 2.2888 -0.0175111 0.895433 15.7816 22.1583 -0.53 10.8316 7.95139e-016 -1.98785e-016 -0 0.786 0.112 2.5817 5.46658e-016 -3.97569e-016 -0 0.3601 -0.878 4.2331 5.96354e-016 0 -0 1.8127 -1.216 2.2227 3.97569e-016 1.98785e-016 9.54166e-015 0.9571 1.114 1.7695 1.49089e-016 -3.97569e-016 -0 4.1246 0.487 4.1451 6.4605e-016 0 3.18055e-015 3.4052 -1.454 2.7682 5.96354e-016 0 3.18055e-015 1.4531 -1.795 1.2713 8.94531e-016 -1.98785e-016 6.36111e-015 5.6954 0.21 2.1184 6.4605e-016 0 3.18055e-015 3.9766 -1.54 2.3863 5.96354e-016 0 3.18055e-015 1.4042 -1.926 1.125 8.94531e-016 -1.98785e-016 6.36111e-015 2.0956 0.66 -0.3894 1.49089e-016 -3.97569e-016 -0 5.0395 -0.09 2.4971 6.4605e-016 0 3.18055e-015 3.7921 -1.552 1.4806 5.96354e-016 0 3.18055e-015 1.4655 -1.808 0.9609 8.94531e-016 -1.98785e-016 6.36111e-015 4.9141 -1.269 0.3591 6.4605e-016 0 3.18055e-015 3.1477 -1.685 0.8462 5.96354e-016 0 3.18055e-015 0.8055 -1.585 0.7955 8.94531e-016 -1.98785e-016 6.36111e-015 -1.7069 20.075 5.0056 0 0 -0 -13.6458 -0.047 -4.849 -1.4496 0.0636048 -5.0245 -28.3255 -0.9759 2.2888 -1.74811 1.20616 -16.8394 -22.1583 -0.53 10.8316 -1.19271e-015 1.98785e-016 -3.18055e-015 -0.786 0.112 2.5817 -3.97569e-016 1.98785e-016 -3.18055e-015 -0.3601 -0.878 4.2331 -2.98177e-016 1.98785e-016 -3.18055e-015 -1.8127 -1.216 2.2227 -2.98177e-016 3.97569e-016 -0 -0.9571 1.114 1.7695 4.96962e-016 0 -6.36111e-015 -4.1246 0.487 4.1451 -9.93923e-017 3.97569e-016 -0 -3.4052 -1.454 2.7682 -8.94531e-016 5.96354e-016 -0 -1.4531 -1.795 1.2713 -3.97569e-016 3.97569e-016 -0 -5.6954 0.21 2.1184 -9.93923e-017 3.97569e-016 -0 -3.9766 -1.54 2.3863 -8.94531e-016 5.96354e-016 -0 -1.4042 -1.926 1.125 -3.97569e-016 3.97569e-016 -0 -2.0956 0.66 -0.3894 4.96962e-016 0 -6.36111e-015 -5.0395 -0.09 2.4971 -9.93923e-017 3.97569e-016 -0 -3.7921 -1.552 1.4806 -8.94531e-016 5.96354e-016 -0 -1.4655 -1.808 0.9609 -3.97569e-016 3.97569e-016 -0 -4.9141 -1.269 0.3592 -9.93923e-017 3.97569e-016 -0 -3.1477 -1.685 0.8462 -8.94531e-016 5.96354e-016 -0 -0.8055 -1.585 0.7955 -3.97569e-016 3.97569e-016 -0 8.367 -8.2066 0.5982 -4.66115 -1.03232 0.120763 2.1923 -43.463 -0.4932 0.00990601 1.55097 0.177175 0.7333 -45.8593 -2.6451 4.65196 -0.54114 -0.255042 -8.367 -8.2066 0.5982 4.66115 -1.03222 -0.120763 -2.1923 -43.463 -0.4931 -0.00990459 1.5509 -0.177176 -0.7333 -45.8593 -2.6451 -4.65196 -0.541171 0.255041 
42.2132 22.2132 -12.0246 -180 -85.9956 -180 0 -1.186 -1.5018 -1.84687 1.14332 -0.0331574 -7.10543e-015 9.964 0.2134 -3.69417 2.2871 -0.0294384 -1.42109e-014 13.134 -3.2573 -3.69417 2.28711 -0.0294401 -7.10543e-015 20.686 -1.6905 -19.1649 -11.5487 -2.95233 3.55271e-015 7.238 -0.1237 -1.20478 -0.339683 1.20478 1.7069 20.075 5.0056 6.5644 3.23887 7.46443 13.6458 -0.047 -4.849 -11.1401 51.1964 41.9191 28.3255 -0.9759 2.2888 34.3645 24.5575 -34.8566 22.1583 -0.53 10.8316 -8.75474 -5.81877 7.72347 0.786 0.112 2.5817 1.98785e-015 2.98177e-016 -0 0.3601 -0.878 4.2331 1.97542e-015 -1.49089e-016 -0 1.8127 -1.216 2.2227 3.97569e-016 -1.98785e-016 -0 0.9571 1.114 1.7695 1.97542e-015 3.47873e-016 -1.59028e-015 4.1246 0.487 4.1451 1.98785e-015 -9.93923e-017 3.18055e-015 3.4052 -1.454 2.7682 4.09993e-016 -9.93923e-017 -0 1.4531 -1.795 1.2713 4.5969e-016 -4.96962e-017 -0 5.6954 0.21 2.1184 1.98785e-015 -9.93923e-017 3.18055e-015 3.9766 -1.54 2.3863 4.09993e-016 -9.93923e-017 -0 1.4042 -1.926 1.125 4.5969e-016 -4.96962e-017 -0 2.0956 0.66 -0.3894 1.97542e-015 3.47873e-016 -1.59028e-015 5.0395 -0.09 2.4971 1.98785e-015 -9.93923e-017 3.18055e-015 3.7921 -1.552 1.4806 4.09993e-016 -9.93923e-017 -0 1.4655 -1.808 0.9609 4.5969e-016 -4.96962e-017 -0 4.9141 -1.269 0.3591 1.98785e-015 -9.93923e-017 3.18055e-015 3.1477 -1.685 0.8462 4.09993e-016 -9.93923e-017 -0 0.8055 -1.585 0.7955 4.5969e-016 -4.96962e-017 -0 -1.7069 20.075 5.0056 -4.84853 2.41848 -14.4219 -13.6458 -0.047 -4.849 -1.47695 53.3439 -6.66277 -28.3255 -0.9759 2.2888 -10.4079 41.1745 -7.92942 -22.1583 -0.53 10.8316 -0.077316 -8.30027 21.3276 -0.786 0.112 2.5817 -2.30777e-015 3.97569e-016 3.18055e-015 -0.3601 -0.878 4.2331 -7.01958e-016 1.73937e-016 4.77083e-015 -1.8127 -1.216 2.2227 -6.02566e-016 -2.23633e-016 3.18055e-015 -0.9571 1.114 1.7695 -2.30777e-015 2.11209e-016 3.18055e-015 -4.1246 0.487 4.1451 9.00743e-016 -5.96354e-016 9.54166e-015 -3.4052 -1.454 2.7682 8.94531e-016 -2.48481e-016 6.36111e-015 -1.4531 -1.795 1.2713 -5.90142e-016 9.93923e-017 6.36111e-015 -5.6954 0.21 2.1184 9.00743e-016 -5.96354e-016 9.54166e-015 -3.9766 -1.54 2.3863 8.94531e-016 -2.48481e-016 6.36111e-015 -1.4042 -1.926 1.125 -5.90142e-016 9.93923e-017 6.36111e-015 -2.0956 0.66 -0.3894 -2.30777e-015 2.11209e-016 3.18055e-015 -5.0395 -0.09 2.4971 9.00743e-016 -5.96354e-016 9.54166e-015 -3.7921 -1.552 1.4806 8.94531e-016 -2.48481e-016 6.36111e-015 -1.4655 -1.808 0.9609 -5.90142e-016 9.93923e-017 6.36111e-015 -4.9141 -1.269 0.3592 9.00743e-016 -5.96354e-016 9.54166e-015 -3.1477 -1.685 0.8462 8.94531e-016 -2.48481e-016 6.36111e-015 -0.8055 -1.585 0.7955 -5.90142e-016 9.93923e-017 6.36111e-015 8.367 -8.2066 0.5982 59.7149 -16.8704 37.1679 2.1923 -43.463 -0.4932 108.85 76.1109 -114.056 0.7333 -45.8593 -2.6451 6.71633 8.17904 0.664499 -8.367 -8.2066 0.5982 -61.9198 -15.8342 -40.9838 -2.1923 -43.463 -0.4931 -114.505 75.3868 119.619 -0.7333 -45.8593 -2.6451 -10.3256 6.66116 1.12213 
42.2138 22.0543 -12.0354 -180 -85.9956 -180 0 -1.186 -1.5018 -1.84711 1.09984 -0.0371524 0 9.964 0.2134 -3.69453 2.20035 -0.0388292 0 13.134 -3.2573 -3.69453 2.20033 -0.0388318 0 20.686 -1.6905 -19.0977 -10.5547 -2.60108 3.55271e-015 7.238 -0.1237 -1.20489 -1.22598 1.18603 1.7069 20.075 5.0056 5.79679 3.04516 6.58624 13.6458 -0.047 -4.849 -11.8147 50.9687 43.2651 28.3255 -0.9759 2.2888 33.7171 25.4101 -33.6657 22.1583 -0.53 10.8316 -7.84409 -5.82227 7.26491 0.786 0.112 2.5817 2.18435e-008 2.11715e-007 1.60425e-008 0.3601 -0.878 4.2331 1.32819e-006 -5.76131e-007 2.67495e-006 1.8127 -1.216 2.2227 3.60434e-007 2.73044e-007 -9.7614e-007 0.9571 1.114 1.7695 1.44119e-015 1.98785e-016 -1.59028e-015 4.1246 0.487 4.1451 2.18435e-008 2.11715e-007 1.60425e-008 3.4052 -1.454 2.7682 1.32819e-006 -5.76131e-007 2.67495e-006 1.4531 -1.795 1.2713 3.60434e-007 2.73044e-007 -9.7614e-007 5.6954 0.21 2.1184 2.18435e-008 2.11715e-007 1.60425e-008 3.9766 -1.54 2.3863 1.32819e-006 -5.76131e-007 2.67495e-006 1.4042 -1.926 1.125 3.60434e-007 2.73044e-007 -9.7614e-007 2.0956 0.66 -0.3894 1.44119e-015 1.98785e-016 -1.59028e-015 5.0395 -0.09 2.4971 2.18435e-008 2.11715e-007 1.60425e-008 3.7921 -1.552 1.4806 1.32819e-006 -5.76131e-007 2.67495e-006 1.4655 -1.808 0.9609 3.60434e-007 2.73044e-007 -9.7614e-007 4.9141 -1.269 0.3591 2.18435e-008 2.11715e-007 1.60425e-008 3.1477 -1.685 0.8462 1.32819e-006 -5.76131e-007 2.67495e-006 0.8055 -1.585 0.7955 3.60434e-007 2.73044e-007 -9.7614e-007 -1.7069 20.075 5.0056 -4.84862 2.41853 -14.4219 -13.6458 -0.047 -4.849 -1.47695 53.3439 -6.66278 -28.3255 -0.9759 2.2888 -10.4079 41.1745 -7.92943 -22.1583 -0.53 10.8316 -0.350605 -8.15419 21.1493 -0.786 0.112 2.5817 1.00163e-006 1.81799e-007 -8.3513e-007 -0.3601 -0.878 4.2331 -1.00163e-006 -1.81799e-007 8.3513e-007 -1.8127 -1.216 2.2227 1.00163e-006 1.81799e-007 -8.3513e-007 -0.9571 1.114 1.7695 -1.75024e-015 -2.48481e-017 -0 -4.1246 0.487 4.1451 1.00163e-006 1.81799e-007 -8.3513e-007 -3.4052 -1.454 2.7682 -1.00163e-006 -1.81799e-007 8.3513e-007 -1.4531 -1.795 1.2713 1.00163e-006 1.81799e-007 -8.3513e-007 -5.6954 0.21 2.1184 1.00163e-006 1.81799e-007 -8.3513e-007 -3.9766 -1.54 2.3863 -1.00163e-006 -1.81799e-007 8.3513e-007 -1.4042 -1.926 1.125 1.00163e-006 1.81799e-007 -8.3513e-007 -2.0956 0.66 -0.3894 -1.75024e-015 -2.48481e-017 -0 -5.0395 -0.09 2.4971 1.00163e-006 1.81799e-007 -8.3513e-007 -3.7921 -1.552 1.4806 -1.00163e-006 -1.81799e-007 8.3513e-007 -1.4655 -1.808 0.9609 1.00163e-006 1.81799e-007 -8.3513e-007 -4.9141 -1.269 0.3592 1.00163e-006 1.81799e-007 -8.3513e-007 -3.1477 -1.685 0.8462 -1.00163e-006 -1.81799e-007 8.3513e-007 -0.8055 -1.585 0.7955 1.00163e-006 1.81799e-007 -8.3513e-007 8.367 -8.2066 0.5982 59.4375 -17.1591 36.8738 2.1923 -43.463 -0.4932 108.871 76.1082 -114.057 0.7333 -45.8593 -2.6451 6.43519 8.23397 0.961883 -8.367 -8.2066 0.5982 -61.448 -16.2308 -40.4645 -2.1923 -43.463 -0.4931 -114.525 75.3829 119.609 -0.7333 -45.8593 -2.6451 -9.83533 6.7323 0.647454 
42.2144 21.8952 -12.0463 -180 -85.9956 -180 0 -1.186 -1.5018 -1.84738 1.05612 -0.0411687 -1.42109e-014 9.964 0.2134 -3.69494 2.11297 -0.0482716 0 13.134 -3.2573 -3.69494 2.11299 -0.0482688 -7.10543e-015 20.686 -1.6905 -19.0367 -9.56007 -2.25165 0 7.238 -0.1237 -1.20529 -2.11308 1.16726 1.7069 20.075 5.0056 5.02518 2.86282 5.70409 13.6458 -0.047 -4.849 -12.4781 50.7309 44.6016 28.3255 -0.9759 2.2888 33.044 26.2521 -32.4527 22.1583 -0.53 10.8316 -6.93224 -5.83304 6.80581 0.786 0.112 2.5817 -6.95746e-016 -1.09332e-015 4.77083e-015 0.3601 -0.878 4.2331 -2.16178e-015 -9.93923e-016 3.18055e-015 1.8127 -1.216 2.2227 -3.97569e-016 -5.96354e-016 3.18055e-015 0.9571 1.114 1.7695 -6.95746e-016 -5.96354e-016 3.18055e-015 4.1246 0.487 4.1451 -2.21148e-015 -6.95746e-016 6.36111e-015 3.4052 -1.454 2.7682 -4.22417e-016 -2.98177e-016 3.18055e-015 1.4531 -1.795 1.2713 -3.23025e-016 -3.97569e-016 1.59028e-015 5.6954 0.21 2.1184 -2.21148e-015 -6.95746e-016 6.36111e-015 3.9766 -1.54 2.3863 -4.22417e-016 -2.98177e-016 3.18055e-015 1.4042 -1.926 1.125 -3.23025e-016 -3.97569e-016 1.59028e-015 2.0956 0.66 -0.3894 -6.95746e-016 -5.96354e-016 3.18055e-015 5.0395 -0.09 2.4971 -2.21148e-015 -6.95746e-016 6.36111e-015 3.7921 -1.552 1.4806 -4.22417e-016 -2.98177e-016 3.18055e-015 1.4655 -1.808 0.9609 -3.23025e-016 -3.97569e-016 1.59028e-015 4.9141 -1.269 0.3591 -2.21148e-015 -6.95746e-016 6.36111e-015 3.1477 -1.685 0.8462 -4.22417e-016 -2.98177e-016 3.18055e-015 0.8055 -1.585 0.7955 -3.23025e-016 -3.97569e-016 1.59028e-015 -1.7069 20.075 5.0056 -4.84857 2.4185 -14.4219 -13.6458 -0.047 -4.849 -1.47696 53.3439 -6.66276 -28.3255 -0.9759 2.2888 -10.4079 41.1745 -7.92943 -22.1583 -0.53 10.8316 -0.623379 -8.00724 20.9717 -0.786 0.112 2.5817 3.11213e-015 3.23802e-016 -0 -0.3601 -0.878 4.2331 3.01448e-015 5.62576e-016 1.59028e-015 -1.8127 -1.216 2.2227 2.81861e-015 3.30014e-016 1.59028e-015 -0.9571 1.114 1.7695 3.11203e-015 2.65564e-016 1.59028e-015 -4.1246 0.487 4.1451 3.0139e-015 -3.04777e-016 9.54166e-015 -3.4052 -1.454 2.7682 4.31046e-015 1.37441e-016 1.59028e-015 -1.4531 -1.795 1.2713 4.01636e-015 6.26249e-016 -1.59028e-015 -5.6954 0.21 2.1184 3.0139e-015 -3.04777e-016 9.54166e-015 -3.9766 -1.54 2.3863 4.31046e-015 1.37441e-016 1.59028e-015 -1.4042 -1.926 1.125 4.01636e-015 6.26249e-016 -1.59028e-015 -2.0956 0.66 -0.3894 3.11203e-015 2.65564e-016 1.59028e-015 -5.0395 -0.09 2.4971 3.0139e-015 -3.04777e-016 9.54166e-015 -3.7921 -1.552 1.4806 4.31046e-015 1.37441e-016 1.59028e-015 -1.4655 -1.808 0.9609 4.01636e-015 6.26249e-016 -1.59028e-015 -4.9141 -1.269 0.3592 3.0139e-015 -3.04777e-016 9.54166e-015 -3.1477 -1.685 0.8462 4.31046e-015 1.37441e-016 1.59028e-015 -0.8055 -1.585 0.7955 4.01636e-015 6.26249e-016 -1.59028e-015 8.367 -8.2066 0.5982 59.158 -17.4467 36.5778 2.1923 -43.463 -0.4932 108.891 76.1056 -114.059 0.7333 -45.8593 -2.6451 6.15363 8.28779 1.25966 -8.367 -8.2066 0.5982 -60.9712 -16.6238 -39.9404 -2.1923 -43.463 -0.4931 -114.544 75.3791 119.598 -0.7333 -45.8593 -2.6451 -9.34397 6.79999 0.171809 
